<mxfile host="app.diagrams.net" agent="Mozilla/5.0 (Windows NT 10.0; Win64; x64) AppleWebKit/537.36 (KHTML, like Gecko) Chrome/137.0.0.0 Safari/537.36 Edg/137.0.0.0" version="28.0.7">
  <diagram name="Page-1" id="Bu-NLDpnTw7T5_9v0y7-">
    <mxGraphModel dx="731" dy="1562" grid="1" gridSize="10" guides="1" tooltips="1" connect="1" arrows="1" fold="1" page="1" pageScale="1" pageWidth="850" pageHeight="1100" math="0" shadow="0">
      <root>
        <mxCell id="0" />
        <mxCell id="1" parent="0" />
        <mxCell id="AlI3ooZ8D5GBTGyjWv63-42" value="" style="edgeStyle=orthogonalEdgeStyle;rounded=0;orthogonalLoop=1;jettySize=auto;html=1;" edge="1" parent="1" source="AlI3ooZ8D5GBTGyjWv63-3">
          <mxGeometry relative="1" as="geometry">
            <mxPoint x="340" y="-930" as="targetPoint" />
          </mxGeometry>
        </mxCell>
        <mxCell id="AlI3ooZ8D5GBTGyjWv63-3" value="Plan" style="ellipse;whiteSpace=wrap;html=1;aspect=fixed;" vertex="1" parent="1">
          <mxGeometry x="300" y="-1090" width="80" height="80" as="geometry" />
        </mxCell>
        <mxCell id="AlI3ooZ8D5GBTGyjWv63-44" value="" style="edgeStyle=orthogonalEdgeStyle;rounded=0;orthogonalLoop=1;jettySize=auto;html=1;" edge="1" parent="1" target="AlI3ooZ8D5GBTGyjWv63-43">
          <mxGeometry relative="1" as="geometry">
            <mxPoint x="340" y="-850" as="sourcePoint" />
          </mxGeometry>
        </mxCell>
        <mxCell id="AlI3ooZ8D5GBTGyjWv63-46" value="" style="edgeStyle=orthogonalEdgeStyle;rounded=0;orthogonalLoop=1;jettySize=auto;html=1;" edge="1" parent="1" source="AlI3ooZ8D5GBTGyjWv63-43" target="AlI3ooZ8D5GBTGyjWv63-45">
          <mxGeometry relative="1" as="geometry" />
        </mxCell>
        <mxCell id="AlI3ooZ8D5GBTGyjWv63-43" value="Build" style="ellipse;whiteSpace=wrap;html=1;aspect=fixed;" vertex="1" parent="1">
          <mxGeometry x="300" y="-770" width="80" height="80" as="geometry" />
        </mxCell>
        <mxCell id="AlI3ooZ8D5GBTGyjWv63-48" value="" style="edgeStyle=orthogonalEdgeStyle;rounded=0;orthogonalLoop=1;jettySize=auto;html=1;" edge="1" parent="1" source="AlI3ooZ8D5GBTGyjWv63-45" target="AlI3ooZ8D5GBTGyjWv63-47">
          <mxGeometry relative="1" as="geometry" />
        </mxCell>
        <mxCell id="AlI3ooZ8D5GBTGyjWv63-45" value="Test" style="ellipse;whiteSpace=wrap;html=1;aspect=fixed;" vertex="1" parent="1">
          <mxGeometry x="300" y="-610" width="80" height="80" as="geometry" />
        </mxCell>
        <mxCell id="AlI3ooZ8D5GBTGyjWv63-50" value="" style="edgeStyle=orthogonalEdgeStyle;rounded=0;orthogonalLoop=1;jettySize=auto;html=1;" edge="1" parent="1" source="AlI3ooZ8D5GBTGyjWv63-47" target="AlI3ooZ8D5GBTGyjWv63-49">
          <mxGeometry relative="1" as="geometry" />
        </mxCell>
        <mxCell id="AlI3ooZ8D5GBTGyjWv63-47" value="Release" style="ellipse;whiteSpace=wrap;html=1;aspect=fixed;" vertex="1" parent="1">
          <mxGeometry x="300" y="-450" width="80" height="80" as="geometry" />
        </mxCell>
        <mxCell id="AlI3ooZ8D5GBTGyjWv63-52" value="" style="edgeStyle=orthogonalEdgeStyle;rounded=0;orthogonalLoop=1;jettySize=auto;html=1;" edge="1" parent="1" source="AlI3ooZ8D5GBTGyjWv63-49" target="AlI3ooZ8D5GBTGyjWv63-51">
          <mxGeometry relative="1" as="geometry" />
        </mxCell>
        <mxCell id="AlI3ooZ8D5GBTGyjWv63-49" value="Deploy" style="ellipse;whiteSpace=wrap;html=1;aspect=fixed;" vertex="1" parent="1">
          <mxGeometry x="300" y="-290" width="80" height="80" as="geometry" />
        </mxCell>
        <mxCell id="AlI3ooZ8D5GBTGyjWv63-54" value="" style="edgeStyle=orthogonalEdgeStyle;rounded=0;orthogonalLoop=1;jettySize=auto;html=1;" edge="1" parent="1" source="AlI3ooZ8D5GBTGyjWv63-51" target="AlI3ooZ8D5GBTGyjWv63-53">
          <mxGeometry relative="1" as="geometry" />
        </mxCell>
        <mxCell id="AlI3ooZ8D5GBTGyjWv63-51" value="Operate" style="ellipse;whiteSpace=wrap;html=1;aspect=fixed;" vertex="1" parent="1">
          <mxGeometry x="300" y="-130" width="80" height="80" as="geometry" />
        </mxCell>
        <mxCell id="AlI3ooZ8D5GBTGyjWv63-53" value="Monitor" style="ellipse;whiteSpace=wrap;html=1;aspect=fixed;" vertex="1" parent="1">
          <mxGeometry x="300" y="30" width="80" height="80" as="geometry" />
        </mxCell>
        <mxCell id="AlI3ooZ8D5GBTGyjWv63-55" value="Develop" style="ellipse;whiteSpace=wrap;html=1;aspect=fixed;" vertex="1" parent="1">
          <mxGeometry x="300" y="-930" width="80" height="80" as="geometry" />
        </mxCell>
      </root>
    </mxGraphModel>
  </diagram>
</mxfile>
